<?xml version="1.0" encoding="utf-8"?>
<!-- Generator: Adobe Illustrator 25.0.1, SVG Export Plug-In . SVG Version: 6.00 Build 0)  -->
<svg version="1.1" id="Layer_1" xmlns="http://www.w3.org/2000/svg" xmlns:xlink="http://www.w3.org/1999/xlink" x="0px" y="0px"
	 viewBox="0 0 63.99 64" style="enable-background:new 0 0 63.99 64;" xml:space="preserve">
<style type="text/css">
	.st0{fill:#F7931A;}
	.st1{fill:#FFFFFF;}
</style>
<path class="st0" d="M63.04,39.74c-4.27,17.14-21.64,27.58-38.78,23.3C7.12,58.77-3.32,41.4,0.96,24.26
	C5.23,7.12,22.59-3.32,39.73,0.96C56.88,5.23,67.31,22.6,63.04,39.74L63.04,39.74z"/>
<path class="st1" d="M46.11,27.44c0.64-4.26-2.61-6.55-7.04-8.07l1.44-5.77l-3.51-0.88l-1.4,5.62c-0.92-0.23-1.87-0.45-2.81-0.66
	l1.41-5.65l-3.51-0.88l-1.44,5.77c-0.76-0.17-1.51-0.35-2.24-0.53l0-0.02l-4.84-1.21l-0.93,3.75c0,0,2.61,0.6,2.55,0.63
	c1.42,0.36,1.68,1.3,1.64,2.04l-1.64,6.57c0.1,0.02,0.23,0.06,0.36,0.12c-0.12-0.03-0.24-0.06-0.37-0.09l-2.3,9.2
	c-0.17,0.43-0.61,1.08-1.61,0.83c0.04,0.05-2.55-0.64-2.55-0.64l-1.74,4.02l4.57,1.14c0.85,0.21,1.68,0.44,2.5,0.65l-1.45,5.83
	l3.51,0.88l1.44-5.77c0.96,0.26,1.89,0.5,2.8,0.73L27.5,50.8l3.51,0.88l1.45-5.82c5.99,1.13,10.49,0.68,12.38-4.74
	c1.53-4.36-0.08-6.88-3.23-8.52C43.92,32.07,45.64,30.56,46.11,27.44L46.11,27.44z M38.08,38.69c-1.08,4.36-8.43,2-10.81,1.41
	l1.93-7.73C31.59,32.97,39.22,34.14,38.08,38.69L38.08,38.69z M39.17,27.38c-0.99,3.97-7.1,1.95-9.08,1.46l1.75-7.01
	C33.82,22.32,40.2,23.24,39.17,27.38z"/>
</svg>
